<svg version="1.1" xmlns="http://www.w3.org/2000/svg" width="176" height="170">
<path d="M0 0 C0 0.66 0 1.32 0 2 C1.65 2.33 3.3 2.66 5 3 C5 3.66 5 4.32 5 5 C6.32 5.33 7.64 5.66 9 6 C9 6.66 9 7.32 9 8 C9.598125 8.28875 10.19625 8.5775 10.8125 8.875 C13 10 13 10 16 12 C16 12.66 16 13.32 16 14 C16.66 14 17.32 14 18 14 C18.495 15.485 18.495 15.485 19 17 C19.763125 17.7425 20.52625 18.485 21.3125 19.25 C24.887235 22.90786838 28 26.68724135 28 32 C28.66 32 29.32 32 30 32 C32.53722882 37.18978622 33.68408087 42.03609966 34.5703125 47.7421875 C34.77320443 49.96068493 34.77320443 49.96068493 36 51 C36.25391333 54.53430291 36.18523797 58.08266874 36.1875 61.625 C36.19974609 62.61113281 36.21199219 63.59726563 36.22460938 64.61328125 C36.23575094 70.1766358 35.79947525 74.73841649 34 80 C33.63729412 81.99488234 33.29359301 83.9937811 33 86 C32.34 86 31.68 86 31 86 C30.896875 86.86625 30.79375 87.7325 30.6875 88.625 C29.96601586 92.16683123 28.72876739 94.84312042 27 98 C26.34 98 25.68 98 25 98 C24.67 99.65 24.34 101.3 24 103 C23.34 103 22.68 103 22 103 C21.505 104.98 21.505 104.98 21 107 C20.34 107 19.68 107 19 107 C18.505 108.485 18.505 108.485 18 110 C16.125 112.1875 16.125 112.1875 14 114 C13.01 114 12.02 114 11 114 C10.505 115.485 10.505 115.485 10 117 C7.4375 118.1875 7.4375 118.1875 5 119 C4 118 4 118 3.87974548 115.94358826 C3.88196609 115.03979935 3.88418671 114.13601044 3.88647461 113.20483398 C3.88658791 111.67335976 3.88658791 111.67335976 3.88670349 110.11094666 C3.89186478 109.0005452 3.89702606 107.89014374 3.90234375 106.74609375 C3.9037587 105.61551041 3.90517365 104.48492706 3.90663147 103.32008362 C3.91224981 99.69252935 3.92480542 96.06503576 3.9375 92.4375 C3.94251264 89.98502693 3.94707595 87.5325529 3.95117188 85.08007812 C3.9622252 79.05336455 3.97898116 73.02668661 4 67 C3.34 67 2.68 67 2 67 C2 66.34 2 65.68 2 65 C0.02 64.67 -1.96 64.34 -4 64 C-4 63.34 -4 62.68 -4 62 C-4.70125 61.896875 -5.4025 61.79375 -6.125 61.6875 C-9.39112785 60.90646943 -12.02506741 59.53691116 -15 58 C-14.99000725 59.32757828 -14.99000725 59.32757828 -14.97981262 60.68197632 C-14.91977552 69.01066189 -14.87406338 77.3392751 -14.84456348 85.66812706 C-14.82888757 89.95039452 -14.80761451 94.23248364 -14.77368164 98.51464844 C-14.74115636 102.6448912 -14.7231615 106.77496211 -14.71536827 110.90532303 C-14.70981242 112.48345268 -14.69896354 114.06157261 -14.68280983 115.63962936 C-14.66112562 117.84508561 -14.65802918 120.04982592 -14.65942383 122.25537109 C-14.64943108 124.14067032 -14.64943108 124.14067032 -14.63923645 126.0640564 C-14.75828842 127.03291779 -14.87734039 128.00177917 -15 129 C-20.43985201 132.62656801 -26.54660808 132.15669478 -32.875 132.125 C-33.63941406 132.12886719 -34.40382813 132.13273438 -35.19140625 132.13671875 C-37.46420329 132.13286001 -39.72869074 132.08051468 -42 132 C-42.71833008 131.98163086 -43.43666016 131.96326172 -44.17675781 131.94433594 C-47.71834488 131.70667899 -49.81781006 131.1329561 -52.69677734 129.03198242 C-55.86373733 124.86296864 -55.69115689 121.78390365 -55.59375 116.68359375 C-55.59379028 115.79011734 -55.59383057 114.89664093 -55.59387207 113.97608948 C-55.58852371 112.09246768 -55.57097015 110.20884593 -55.54199219 108.32543945 C-55.50008695 105.44347963 -55.5009296 102.56385419 -55.5078125 99.68164062 C-55.49732112 97.84894211 -55.48438329 96.01625562 -55.46875 94.18359375 C-55.46854858 93.32309921 -55.46834717 92.46260468 -55.46813965 91.57603455 C-55.39706885 87.98311312 -55.33773828 85.61904985 -53.59570312 82.42602539 C-52 81 -52 81 -50 81 C-50 80.34 -50 79.68 -50 79 C-48.57279591 77.73071202 -47.08016224 76.53461407 -45.5625 75.375 C-41.11928135 71.92407912 -36.93406936 68.29592155 -32.8125 64.46875 C-31 63 -31 63 -29 63 C-28.505 61.515 -28.505 61.515 -28 60 C-27.34 60 -26.68 60 -26 60 C-26 59.34 -26 58.68 -26 58 C-25.01 57.67 -24.02 57.34 -23 57 C-20.09858751 55.2717038 -20.09858751 55.2717038 -18 52 C-17.37888333 47.88065738 -17.52969893 43.8413096 -17.6875 39.6875 C-17.71005859 38.56537109 -17.73261719 37.44324219 -17.75585938 36.28710938 C-17.81466224 33.52337464 -17.89679599 30.76237446 -18 28 C-19.485 28.495 -19.485 28.495 -21 29 C-21.33 29.99 -21.66 30.98 -22 32 C-22.66 32 -23.32 32 -24 32 C-24.33 32.99 -24.66 33.98 -25 35 C-26.1446875 35.680625 -26.1446875 35.680625 -27.3125 36.375 C-30.11838447 37.85876335 -30.11838447 37.85876335 -31.9375 40.4375 C-34.31011559 43.38529513 -36.74900629 45.09180804 -40 47 C-40.66 47 -41.32 47 -42 47 C-42.33 47.99 -42.66 48.98 -43 50 C-43.66 50 -44.32 50 -45 50 C-45.33 50.99 -45.66 51.98 -46 53 C-46.66 53 -47.32 53 -48 53 C-48 53.66 -48 54.32 -48 55 C-48.9075 55.598125 -49.815 56.19625 -50.75 56.8125 C-54.07088117 58.79729008 -54.07088117 58.79729008 -56.0625 61.6875 C-58 64 -58 64 -60.75 64.8125 C-61.4925 64.874375 -62.235 64.93625 -63 65 C-63.495 66.485 -63.495 66.485 -64 68 C-64.66 68 -65.32 68 -66 68 C-66.495 69.485 -66.495 69.485 -67 71 C-67.66 71 -68.32 71 -69 71 C-69.495 72.485 -69.495 72.485 -70 74 C-70.66 74 -71.32 74 -72 74 C-71.99476318 75.29212402 -71.98952637 76.58424805 -71.98413086 77.91552734 C-71.96606633 82.69758413 -71.95456264 87.47963789 -71.94506836 92.26171875 C-71.94003148 94.33366401 -71.93320175 96.4056057 -71.92456055 98.47753906 C-71.91246679 101.45118082 -71.90676533 104.42477569 -71.90234375 107.3984375 C-71.89718246 108.32868744 -71.89202118 109.25893738 -71.88670349 110.21737671 C-71.88662796 111.07811798 -71.88655243 111.93885925 -71.88647461 112.82568359 C-71.884254 113.58513275 -71.88203339 114.34458191 -71.87974548 115.12704468 C-72 117 -72 117 -73 119 C-77.47207238 117.59449154 -79.80049165 115.3635857 -83 112 C-83.763125 111.443125 -84.52625 110.88625 -85.3125 110.3125 C-85.869375 109.879375 -86.42625 109.44625 -87 109 C-87 108.34 -87 107.68 -87 107 C-87.66 107 -88.32 107 -89 107 C-89.33 106.01 -89.66 105.02 -90 104 C-90.515625 103.505 -91.03125 103.01 -91.5625 102.5 C-93 101 -93 101 -93 98 C-93.66 98 -94.32 98 -95 98 C-95.495 95.03 -95.495 95.03 -96 92 C-96.66 92 -97.32 92 -98 92 C-102.59225513 80.66287016 -102.59225513 80.66287016 -102 74 C-102.66 74 -103.32 74 -104 74 C-104 66.08 -104 58.16 -104 50 C-103.34 50 -102.68 50 -102 50 C-102.020625 48.9275 -102.04125 47.855 -102.0625 46.75 C-102.0142016 43.85209576 -101.86844115 41.71387859 -101 39 C-100.34 39 -99.68 39 -99 39 C-98.67 36.69 -98.34 34.38 -98 32 C-97.34 32 -96.68 32 -96 32 C-95.505 29.03 -95.505 29.03 -95 26 C-94.34 26 -93.68 26 -93 26 C-92.74089844 25.27425781 -92.48179688 24.54851563 -92.21484375 23.80078125 C-90.95525439 20.89684051 -89.49198794 18.68961017 -87.5625 16.1875 C-86.96566406 15.39730469 -86.36882812 14.60710938 -85.75390625 13.79296875 C-85.17511719 13.20128906 -84.59632812 12.60960938 -84 12 C-83.01 12 -82.02 12 -81 12 C-80.67 11.01 -80.34 10.02 -80 9 C-75.65714286 5 -75.65714286 5 -72 5 C-71.67 4.01 -71.34 3.02 -71 2 C-50.10991046 -11.41437188 -21.68213518 -11.27599898 0 0 Z " fill="#FEFEFE" transform="translate(119,23)"/>
</svg>
